{
	"asset":{
		"generator":"Khronos glTF Blender I/O v4.5.49",
		"version":"2.0"
	},
	"scene":0,
	"scenes":[
		{
			"name":"Scene",
			"nodes":[
				0
			]
		}
	],
	"nodes":[
		{
			"mesh":0,
			"name":"laptop",
			"rotation":[
				-0.7071068286895752,
				0,
				0.7071068286895752,
				3.090862321641907e-08
			],
			"scale":[
				0.10000000149011612,
				0.10000000149011612,
				0.10000000149011612
			]
		}
	],
	"materials":[
		{
			"doubleSided":true,
			"emissiveFactor":[
				1,
				1,
				1
			],
			"emissiveTexture":{
				"index":0
			},
			"name":"laptop",
			"pbrMetallicRoughness":{
				"baseColorTexture":{
					"index":1
				},
				"metallicRoughnessTexture":{
					"index":2
				}
			}
		}
	],
	"meshes":[
		{
			"name":"Object_0",
			"primitives":[
				{
					"attributes":{
						"POSITION":0,
						"NORMAL":1,
						"TEXCOORD_0":2
					},
					"indices":3,
					"material":0
				}
			]
		}
	],
	"textures":[
		{
			"sampler":0,
			"source":0
		},
		{
			"sampler":0,
			"source":1
		},
		{
			"sampler":0,
			"source":2
		}
	],
	"images":[
		{
			"mimeType":"image/png",
			"name":"Material__64_emissive",
			"uri":"texture/Material__64_emissive.png"
		},
		{
			"mimeType":"image/png",
			"name":"Material__64_baseColor",
			"uri":"texture/Material__64_baseColor.png"
		},
		{
			"mimeType":"image/png",
			"name":"Material__64_metallicRoughness",
			"uri":"texture/Material__64_metallicRoughness.png"
		}
	],
	"accessors":[
		{
			"bufferView":0,
			"componentType":5126,
			"count":29147,
			"max":[
				7.938782691955566,
				0.42470550537109375,
				7.350349426269531
			],
			"min":[
				-7.7012176513671875,
				-8.352592468261719,
				-7.965049743652344
			],
			"type":"VEC3"
		},
		{
			"bufferView":1,
			"componentType":5126,
			"count":29147,
			"type":"VEC3"
		},
		{
			"bufferView":2,
			"componentType":5126,
			"count":29147,
			"type":"VEC2"
		},
		{
			"bufferView":3,
			"componentType":5123,
			"count":92901,
			"type":"SCALAR"
		}
	],
	"bufferViews":[
		{
			"buffer":0,
			"byteLength":349764,
			"byteOffset":0,
			"target":34962
		},
		{
			"buffer":0,
			"byteLength":349764,
			"byteOffset":349764,
			"target":34962
		},
		{
			"buffer":0,
			"byteLength":233176,
			"byteOffset":699528,
			"target":34962
		},
		{
			"buffer":0,
			"byteLength":185802,
			"byteOffset":932704,
			"target":34963
		}
	],
	"samplers":[
		{
			"magFilter":9729,
			"minFilter":9987
		}
	],
	"buffers":[
		{
			"byteLength":1118508,
			"uri":"laptop.bin"
		}
	]
}
