{
	"asset":{
		"generator":"Khronos glTF Blender I/O v4.5.49",
		"version":"2.0"
	},
	"scene":0,
	"scenes":[
		{
			"name":"Scene",
			"nodes":[
				0
			]
		}
	],
	"nodes":[
		{
			"mesh":0,
			"name":"bretzel"
		}
	],
	"materials":[
		{
			"doubleSided":true,
			"name":"bretzel",
			"pbrMetallicRoughness":{
				"baseColorTexture":{
					"index":0
				},
				"metallicFactor":0,
				"roughnessFactor":0.6000000238418579
			}
		}
	],
	"meshes":[
		{
			"name":"Object_1",
			"primitives":[
				{
					"attributes":{
						"POSITION":0,
						"NORMAL":1,
						"TEXCOORD_0":2
					},
					"indices":3,
					"material":0
				}
			]
		}
	],
	"textures":[
		{
			"sampler":0,
			"source":0
		}
	],
	"images":[
		{
			"mimeType":"image/png",
			"name":"Material_baseColor",
			"uri":"texture/Material_baseColor.png"
		}
	],
	"accessors":[
		{
			"bufferView":0,
			"componentType":5126,
			"count":514,
			"max":[
				0.2621731758117676,
				0.07114124298095703,
				0.2815065383911133
			],
			"min":[
				-0.24789953231811523,
				-0.05140423774719238,
				-0.25661635398864746
			],
			"type":"VEC3"
		},
		{
			"bufferView":1,
			"componentType":5126,
			"count":514,
			"type":"VEC3"
		},
		{
			"bufferView":2,
			"componentType":5126,
			"count":514,
			"type":"VEC2"
		},
		{
			"bufferView":3,
			"componentType":5123,
			"count":2676,
			"type":"SCALAR"
		}
	],
	"bufferViews":[
		{
			"buffer":0,
			"byteLength":6168,
			"byteOffset":0,
			"target":34962
		},
		{
			"buffer":0,
			"byteLength":6168,
			"byteOffset":6168,
			"target":34962
		},
		{
			"buffer":0,
			"byteLength":4112,
			"byteOffset":12336,
			"target":34962
		},
		{
			"buffer":0,
			"byteLength":5352,
			"byteOffset":16448,
			"target":34963
		}
	],
	"samplers":[
		{
			"magFilter":9729,
			"minFilter":9987
		}
	],
	"buffers":[
		{
			"byteLength":21800,
			"uri":"bretzel.bin"
		}
	]
}
