{
	"asset":{
		"generator":"Khronos glTF Blender I/O v4.5.49",
		"version":"2.0"
	},
	"scene":0,
	"scenes":[
		{
			"name":"Scene",
			"nodes":[
				0
			]
		}
	],
	"nodes":[
		{
			"mesh":0,
			"name":"duck",
			"translation":[
				0.035150181502103806,
				0.16444265842437744,
				-0.03185966610908508
			]
		}
	],
	"materials":[
		{
			"doubleSided":true,
			"name":"duck",
			"pbrMetallicRoughness":{
				"baseColorTexture":{
					"index":0
				},
				"metallicFactor":0,
				"roughnessFactor":0.8211145401000977
			}
		}
	],
	"meshes":[
		{
			"name":"QRDUCK_.003_Default OBJ_0",
			"primitives":[
				{
					"attributes":{
						"POSITION":0,
						"NORMAL":1,
						"TEXCOORD_0":2
					},
					"indices":3,
					"material":0
				}
			]
		}
	],
	"textures":[
		{
			"sampler":0,
			"source":0
		}
	],
	"images":[
		{
			"mimeType":"image/png",
			"name":"Default_OBJ_baseColor",
			"uri":"texture/Default_OBJ_baseColor.png"
		}
	],
	"accessors":[
		{
			"bufferView":0,
			"componentType":5126,
			"count":1924,
			"max":[
				0.21471178531646729,
				0.23494940996170044,
				0.181237131357193
			],
			"min":[
				-0.18283700942993164,
				-0.1603420227766037,
				-0.20394915342330933
			],
			"type":"VEC3"
		},
		{
			"bufferView":1,
			"componentType":5126,
			"count":1924,
			"type":"VEC3"
		},
		{
			"bufferView":2,
			"componentType":5126,
			"count":1924,
			"type":"VEC2"
		},
		{
			"bufferView":3,
			"componentType":5123,
			"count":10626,
			"type":"SCALAR"
		}
	],
	"bufferViews":[
		{
			"buffer":0,
			"byteLength":23088,
			"byteOffset":0,
			"target":34962
		},
		{
			"buffer":0,
			"byteLength":23088,
			"byteOffset":23088,
			"target":34962
		},
		{
			"buffer":0,
			"byteLength":15392,
			"byteOffset":46176,
			"target":34962
		},
		{
			"buffer":0,
			"byteLength":21252,
			"byteOffset":61568,
			"target":34963
		}
	],
	"samplers":[
		{
			"magFilter":9729,
			"minFilter":9987
		}
	],
	"buffers":[
		{
			"byteLength":82820,
			"uri":"duck.bin"
		}
	]
}
