{
	"asset":{
		"generator":"Khronos glTF Blender I/O v4.5.49",
		"version":"2.0"
	},
	"scene":0,
	"scenes":[
		{
			"name":"Scene",
			"nodes":[
				0,
				1
			]
		}
	],
	"nodes":[
		{
			"mesh":0,
			"name":"pin.001",
			"rotation":[
				-0.07962961494922638,
				-0.7026088237762451,
				-0.07962961494922638,
				0.7026087641716003
			],
			"scale":[
				0.15946950018405914,
				0.15946950018405914,
				0.15946950018405914
			],
			"translation":[
				-0.008639838546514511,
				0.6291872262954712,
				0
			]
		},
		{
			"mesh":1,
			"name":"Cube",
			"rotation":[
				0,
				0,
				-0.028521526604890823,
				0.999593198299408
			],
			"scale":[
				0.005959908943623304,
				0.30583763122558594,
				0.22152891755104065
			],
			"translation":[
				0,
				0.37134799361228943,
				0
			]
		}
	],
	"materials":[
		{
			"name":"Pin2.003",
			"normalTexture":{
				"index":0
			},
			"occlusionTexture":{
				"index":1
			},
			"pbrMetallicRoughness":{
				"baseColorTexture":{
					"index":2
				},
				"metallicRoughnessTexture":{
					"index":1
				}
			}
		},
		{
			"doubleSided":true,
			"name":"polaroid",
			"pbrMetallicRoughness":{
				"baseColorFactor":[
					0.8577592372894287,
					0.8577592372894287,
					0.8577592372894287,
					1
				],
				"metallicFactor":0,
				"roughnessFactor":0.5
			}
		},
		{
			"doubleSided":true,
			"name":"picture",
			"pbrMetallicRoughness":{
				"metallicFactor":0,
				"roughnessFactor":0.5
			}
		}
	],
	"meshes":[
		{
			"name":"Pin2_Pin2_0.002",
			"primitives":[
				{
					"attributes":{
						"POSITION":0,
						"NORMAL":1,
						"TEXCOORD_0":2,
						"TEXCOORD_1":3,
						"TEXCOORD_2":4
					},
					"indices":5,
					"material":0
				}
			]
		},
		{
			"name":"Cube.003",
			"primitives":[
				{
					"attributes":{
						"POSITION":6,
						"NORMAL":7,
						"TEXCOORD_0":8
					},
					"indices":9,
					"material":1
				},
				{
					"attributes":{
						"POSITION":10,
						"NORMAL":11,
						"TEXCOORD_0":12
					},
					"indices":9,
					"material":2
				}
			]
		}
	],
	"textures":[
		{
			"sampler":0,
			"source":0
		},
		{
			"sampler":0,
			"source":1
		},
		{
			"sampler":0,
			"source":2
		}
	],
	"images":[
		{
			"mimeType":"image/png",
			"name":"Image_2",
			"uri":"texture/Image_2.png"
		},
		{
			"mimeType":"image/png",
			"name":"Image_1",
			"uri":"texture/Image_1.png"
		},
		{
			"mimeType":"image/png",
			"name":"Image_0",
			"uri":"texture/Image_0.png"
		}
	],
	"accessors":[
		{
			"bufferView":0,
			"componentType":5126,
			"count":607,
			"max":[
				0.1981114149093628,
				0.1981114149093628,
				0.4336460530757904
			],
			"min":[
				-0.1981114149093628,
				-0.1981114149093628,
				-0.433646023273468
			],
			"type":"VEC3"
		},
		{
			"bufferView":1,
			"componentType":5126,
			"count":607,
			"type":"VEC3"
		},
		{
			"bufferView":2,
			"componentType":5126,
			"count":607,
			"type":"VEC2"
		},
		{
			"bufferView":3,
			"componentType":5126,
			"count":607,
			"type":"VEC2"
		},
		{
			"bufferView":4,
			"componentType":5126,
			"count":607,
			"type":"VEC2"
		},
		{
			"bufferView":5,
			"componentType":5123,
			"count":2490,
			"type":"SCALAR"
		},
		{
			"bufferView":6,
			"componentType":5126,
			"count":24,
			"max":[
				1,
				1,
				1
			],
			"min":[
				-1,
				-1,
				-1
			],
			"type":"VEC3"
		},
		{
			"bufferView":7,
			"componentType":5126,
			"count":24,
			"type":"VEC3"
		},
		{
			"bufferView":8,
			"componentType":5126,
			"count":24,
			"type":"VEC2"
		},
		{
			"bufferView":9,
			"componentType":5123,
			"count":36,
			"type":"SCALAR"
		},
		{
			"bufferView":10,
			"componentType":5126,
			"count":24,
			"max":[
				1.3061052560806274,
				0.8751861453056335,
				0.8228615522384644
			],
			"min":[
				-1.3061052560806274,
				-0.6648856997489929,
				-0.8228615522384644
			],
			"type":"VEC3"
		},
		{
			"bufferView":11,
			"componentType":5126,
			"count":24,
			"type":"VEC3"
		},
		{
			"bufferView":12,
			"componentType":5126,
			"count":24,
			"type":"VEC2"
		}
	],
	"bufferViews":[
		{
			"buffer":0,
			"byteLength":7284,
			"byteOffset":0,
			"target":34962
		},
		{
			"buffer":0,
			"byteLength":7284,
			"byteOffset":7284,
			"target":34962
		},
		{
			"buffer":0,
			"byteLength":4856,
			"byteOffset":14568,
			"target":34962
		},
		{
			"buffer":0,
			"byteLength":4856,
			"byteOffset":19424,
			"target":34962
		},
		{
			"buffer":0,
			"byteLength":4856,
			"byteOffset":24280,
			"target":34962
		},
		{
			"buffer":0,
			"byteLength":4980,
			"byteOffset":29136,
			"target":34963
		},
		{
			"buffer":0,
			"byteLength":288,
			"byteOffset":34116,
			"target":34962
		},
		{
			"buffer":0,
			"byteLength":288,
			"byteOffset":34404,
			"target":34962
		},
		{
			"buffer":0,
			"byteLength":192,
			"byteOffset":34692,
			"target":34962
		},
		{
			"buffer":0,
			"byteLength":72,
			"byteOffset":34884,
			"target":34963
		},
		{
			"buffer":0,
			"byteLength":288,
			"byteOffset":34956,
			"target":34962
		},
		{
			"buffer":0,
			"byteLength":288,
			"byteOffset":35244,
			"target":34962
		},
		{
			"buffer":0,
			"byteLength":192,
			"byteOffset":35532,
			"target":34962
		}
	],
	"samplers":[
		{
			"magFilter":9729,
			"minFilter":9987
		}
	],
	"buffers":[
		{
			"byteLength":35724,
			"uri":"polaroid.bin"
		}
	]
}
