{
	"asset":{
		"generator":"Khronos glTF Blender I/O v4.5.49",
		"version":"2.0"
	},
	"scene":0,
	"scenes":[
		{
			"name":"Scene",
			"nodes":[
				0
			]
		}
	],
	"nodes":[
		{
			"mesh":0,
			"name":"pin.004",
			"translation":[
				-0.009489104151725769,
				0.28202977776527405,
				-0.003586100647225976
			]
		}
	],
	"materials":[
		{
			"name":"Pin2",
			"normalTexture":{
				"index":0
			},
			"occlusionTexture":{
				"index":1
			},
			"pbrMetallicRoughness":{
				"baseColorTexture":{
					"index":2
				},
				"metallicRoughnessTexture":{
					"index":1
				}
			}
		},
		{
			"doubleSided":true,
			"name":"pic.003",
			"pbrMetallicRoughness":{
				"metallicFactor":0,
				"roughnessFactor":0.5
			}
		},
		{
			"doubleSided":true,
			"name":"polaroid",
			"pbrMetallicRoughness":{
				"baseColorFactor":[
					0.9001601934432983,
					0.9001601934432983,
					0.9001601934432983,
					1
				],
				"metallicFactor":0,
				"roughnessFactor":0.5
			}
		}
	],
	"meshes":[
		{
			"name":"Pin2_Pin2_0.004",
			"primitives":[
				{
					"attributes":{
						"POSITION":0,
						"NORMAL":1,
						"TEXCOORD_0":2,
						"TEXCOORD_1":3,
						"TEXCOORD_2":4
					},
					"indices":5,
					"material":0
				},
				{
					"attributes":{
						"POSITION":6,
						"NORMAL":7,
						"TEXCOORD_0":8,
						"TEXCOORD_1":9,
						"TEXCOORD_2":10
					},
					"indices":11,
					"material":1
				},
				{
					"attributes":{
						"POSITION":12,
						"NORMAL":13,
						"TEXCOORD_0":14,
						"TEXCOORD_1":15,
						"TEXCOORD_2":16
					},
					"indices":17,
					"material":2
				}
			]
		}
	],
	"textures":[
		{
			"sampler":0,
			"source":0
		},
		{
			"sampler":0,
			"source":1
		},
		{
			"sampler":0,
			"source":2
		}
	],
	"images":[
		{
			"mimeType":"image/png",
			"name":"Pin2_normal",
			"uri":"texture/Pin2_normal.png"
		},
		{
			"mimeType":"image/png",
			"name":"Pin2_metallicRoughness",
			"uri":"texture/Pin2_metallicRoughness.png"
		},
		{
			"mimeType":"image/png",
			"name":"Pin2_baseColor",
			"uri":"texture/Pin2_baseColor.png"
		}
	],
	"accessors":[
		{
			"bufferView":0,
			"componentType":5126,
			"count":680,
			"max":[
				0.04481171444058418,
				0.32661762833595276,
				0.05990612879395485
			],
			"min":[
				-0.14982692897319794,
				0.1591755449771881,
				-0.04389946535229683
			],
			"type":"VEC3"
		},
		{
			"bufferView":1,
			"componentType":5126,
			"count":680,
			"type":"VEC3"
		},
		{
			"bufferView":2,
			"componentType":5126,
			"count":680,
			"type":"VEC2"
		},
		{
			"bufferView":3,
			"componentType":5126,
			"count":680,
			"type":"VEC2"
		},
		{
			"bufferView":4,
			"componentType":5126,
			"count":680,
			"type":"VEC2"
		},
		{
			"bufferView":5,
			"componentType":5123,
			"count":2427,
			"type":"SCALAR"
		},
		{
			"bufferView":6,
			"componentType":5126,
			"count":176,
			"max":[
				0.020524270832538605,
				0.22148749232292175,
				0.19919048249721527
			],
			"min":[
				0.0010755360126495361,
				-0.2783702611923218,
				-0.20092467963695526
			],
			"type":"VEC3"
		},
		{
			"bufferView":7,
			"componentType":5126,
			"count":176,
			"type":"VEC3"
		},
		{
			"bufferView":8,
			"componentType":5126,
			"count":176,
			"type":"VEC2"
		},
		{
			"bufferView":9,
			"componentType":5126,
			"count":176,
			"type":"VEC2"
		},
		{
			"bufferView":10,
			"componentType":5126,
			"count":176,
			"type":"VEC2"
		},
		{
			"bufferView":11,
			"componentType":5123,
			"count":486,
			"type":"SCALAR"
		},
		{
			"bufferView":12,
			"componentType":5126,
			"count":72,
			"max":[
				0.018525347113609314,
				0.22148749232292175,
				0.19919048249721527
			],
			"min":[
				0.0010755360126495361,
				-0.27829983830451965,
				-0.20092464983463287
			],
			"type":"VEC3"
		},
		{
			"bufferView":13,
			"componentType":5126,
			"count":72,
			"type":"VEC3"
		},
		{
			"bufferView":14,
			"componentType":5126,
			"count":72,
			"type":"VEC2"
		},
		{
			"bufferView":15,
			"componentType":5126,
			"count":72,
			"type":"VEC2"
		},
		{
			"bufferView":16,
			"componentType":5126,
			"count":72,
			"type":"VEC2"
		},
		{
			"bufferView":17,
			"componentType":5123,
			"count":192,
			"type":"SCALAR"
		}
	],
	"bufferViews":[
		{
			"buffer":0,
			"byteLength":8160,
			"byteOffset":0,
			"target":34962
		},
		{
			"buffer":0,
			"byteLength":8160,
			"byteOffset":8160,
			"target":34962
		},
		{
			"buffer":0,
			"byteLength":5440,
			"byteOffset":16320,
			"target":34962
		},
		{
			"buffer":0,
			"byteLength":5440,
			"byteOffset":21760,
			"target":34962
		},
		{
			"buffer":0,
			"byteLength":5440,
			"byteOffset":27200,
			"target":34962
		},
		{
			"buffer":0,
			"byteLength":4854,
			"byteOffset":32640,
			"target":34963
		},
		{
			"buffer":0,
			"byteLength":2112,
			"byteOffset":37496,
			"target":34962
		},
		{
			"buffer":0,
			"byteLength":2112,
			"byteOffset":39608,
			"target":34962
		},
		{
			"buffer":0,
			"byteLength":1408,
			"byteOffset":41720,
			"target":34962
		},
		{
			"buffer":0,
			"byteLength":1408,
			"byteOffset":43128,
			"target":34962
		},
		{
			"buffer":0,
			"byteLength":1408,
			"byteOffset":44536,
			"target":34962
		},
		{
			"buffer":0,
			"byteLength":972,
			"byteOffset":45944,
			"target":34963
		},
		{
			"buffer":0,
			"byteLength":864,
			"byteOffset":46916,
			"target":34962
		},
		{
			"buffer":0,
			"byteLength":864,
			"byteOffset":47780,
			"target":34962
		},
		{
			"buffer":0,
			"byteLength":576,
			"byteOffset":48644,
			"target":34962
		},
		{
			"buffer":0,
			"byteLength":576,
			"byteOffset":49220,
			"target":34962
		},
		{
			"buffer":0,
			"byteLength":576,
			"byteOffset":49796,
			"target":34962
		},
		{
			"buffer":0,
			"byteLength":384,
			"byteOffset":50372,
			"target":34963
		}
	],
	"samplers":[
		{
			"magFilter":9729,
			"minFilter":9987
		}
	],
	"buffers":[
		{
			"byteLength":50756,
			"uri":"polaroid.bin"
		}
	]
}
