{
	"asset":{
		"generator":"Khronos glTF Blender I/O v4.5.49",
		"version":"2.0"
	},
	"scene":0,
	"scenes":[
		{
			"name":"Scene",
			"nodes":[
				0,
				1
			]
		}
	],
	"nodes":[
		{
			"mesh":0,
			"name":"polySurface5_MAT_FanBase_0"
		},
		{
			"mesh":1,
			"name":"polySurface6_MAT_FanBase_0",
			"translation":[
				-0.13831008970737457,
				1.158452033996582,
				0
			]
		}
	],
	"materials":[
		{
			"doubleSided":true,
			"name":"fan",
			"normalTexture":{
				"index":0
			},
			"pbrMetallicRoughness":{
				"baseColorTexture":{
					"index":1
				},
				"metallicRoughnessTexture":{
					"index":2
				}
			}
		}
	],
	"meshes":[
		{
			"name":"polySurface5_MAT_FanBase_0.001",
			"primitives":[
				{
					"attributes":{
						"POSITION":0,
						"NORMAL":1,
						"TEXCOORD_0":2
					},
					"indices":3,
					"material":0
				}
			]
		},
		{
			"name":"polySurface6_MAT_FanBase_0.001",
			"primitives":[
				{
					"attributes":{
						"POSITION":4,
						"NORMAL":5,
						"TEXCOORD_0":6
					},
					"indices":7,
					"material":0
				}
			]
		}
	],
	"textures":[
		{
			"sampler":0,
			"source":0
		},
		{
			"sampler":0,
			"source":1
		},
		{
			"sampler":0,
			"source":2
		}
	],
	"images":[
		{
			"mimeType":"image/png",
			"name":"MAT_FanBase_normal",
			"uri":"texture/MAT_FanBase_normal.png"
		},
		{
			"mimeType":"image/png",
			"name":"MAT_FanBase_baseColor",
			"uri":"texture/MAT_FanBase_baseColor.png"
		},
		{
			"mimeType":"image/png",
			"name":"MAT_FanBase_metallicRoughness",
			"uri":"texture/MAT_FanBase_metallicRoughness.png"
		}
	],
	"accessors":[
		{
			"bufferView":0,
			"componentType":5126,
			"count":6364,
			"max":[
				0.6350750923156738,
				1.9437198638916016,
				0.7822281122207642
			],
			"min":[
				-0.4617632329463959,
				0.005153298377990723,
				-0.7809532880783081
			],
			"type":"VEC3"
		},
		{
			"bufferView":1,
			"componentType":5126,
			"count":6364,
			"type":"VEC3"
		},
		{
			"bufferView":2,
			"componentType":5126,
			"count":6364,
			"type":"VEC2"
		},
		{
			"bufferView":3,
			"componentType":5123,
			"count":29796,
			"type":"SCALAR"
		},
		{
			"bufferView":4,
			"componentType":5126,
			"count":1676,
			"max":[
				0.04127109795808792,
				0.7000695466995239,
				0.7000376582145691
			],
			"min":[
				-0.027104496955871582,
				-0.7000707387924194,
				-0.7000856399536133
			],
			"type":"VEC3"
		},
		{
			"bufferView":5,
			"componentType":5126,
			"count":1676,
			"type":"VEC3"
		},
		{
			"bufferView":6,
			"componentType":5126,
			"count":1676,
			"type":"VEC2"
		},
		{
			"bufferView":7,
			"componentType":5123,
			"count":8568,
			"type":"SCALAR"
		}
	],
	"bufferViews":[
		{
			"buffer":0,
			"byteLength":76368,
			"byteOffset":0,
			"target":34962
		},
		{
			"buffer":0,
			"byteLength":76368,
			"byteOffset":76368,
			"target":34962
		},
		{
			"buffer":0,
			"byteLength":50912,
			"byteOffset":152736,
			"target":34962
		},
		{
			"buffer":0,
			"byteLength":59592,
			"byteOffset":203648,
			"target":34963
		},
		{
			"buffer":0,
			"byteLength":20112,
			"byteOffset":263240,
			"target":34962
		},
		{
			"buffer":0,
			"byteLength":20112,
			"byteOffset":283352,
			"target":34962
		},
		{
			"buffer":0,
			"byteLength":13408,
			"byteOffset":303464,
			"target":34962
		},
		{
			"buffer":0,
			"byteLength":17136,
			"byteOffset":316872,
			"target":34963
		}
	],
	"samplers":[
		{
			"magFilter":9729,
			"minFilter":9987
		}
	],
	"buffers":[
		{
			"byteLength":334008,
			"uri":"fan.bin"
		}
	]
}
