{
	"asset":{
		"generator":"Khronos glTF Blender I/O v4.5.49",
		"version":"2.0"
	},
	"scene":0,
	"scenes":[
		{
			"name":"Scene",
			"nodes":[
				0
			]
		}
	],
	"nodes":[
		{
			"mesh":0,
			"name":"Curve.013",
			"rotation":[
				0,
				-0.7071066498756409,
				0,
				0.70710688829422
			],
			"scale":[
				7.999999523162842,
				8,
				7.999999523162842
			],
			"translation":[
				0,
				0.08233219385147095,
				0
			]
		}
	],
	"materials":[
		{
			"doubleSided":true,
			"name":"Material",
			"pbrMetallicRoughness":{
				"baseColorTexture":{
					"index":0
				},
				"metallicFactor":0,
				"roughnessFactor":0.5
			}
		}
	],
	"meshes":[
		{
			"name":"Curve.013",
			"primitives":[
				{
					"attributes":{
						"POSITION":0,
						"NORMAL":1,
						"TEXCOORD_0":2
					},
					"indices":3,
					"material":0
				}
			]
		}
	],
	"textures":[
		{
			"sampler":0,
			"source":0
		}
	],
	"images":[
		{
			"mimeType":"image/png",
			"name":"nexo_gradient",
			"uri":"texture/nexo_gradient.png"
		}
	],
	"accessors":[
		{
			"bufferView":0,
			"componentType":5126,
			"count":4985,
			"max":[
				0.05509699136018753,
				0.009999999776482582,
				0.06695947051048279
			],
			"min":[
				-0.059649188071489334,
				-0.009999999776482582,
				-0.0699915885925293
			],
			"type":"VEC3"
		},
		{
			"bufferView":1,
			"componentType":5126,
			"count":4985,
			"type":"VEC3"
		},
		{
			"bufferView":2,
			"componentType":5126,
			"count":4985,
			"type":"VEC2"
		},
		{
			"bufferView":3,
			"componentType":5123,
			"count":14088,
			"type":"SCALAR"
		}
	],
	"bufferViews":[
		{
			"buffer":0,
			"byteLength":59820,
			"byteOffset":0,
			"target":34962
		},
		{
			"buffer":0,
			"byteLength":59820,
			"byteOffset":59820,
			"target":34962
		},
		{
			"buffer":0,
			"byteLength":39880,
			"byteOffset":119640,
			"target":34962
		},
		{
			"buffer":0,
			"byteLength":28176,
			"byteOffset":159520,
			"target":34963
		}
	],
	"samplers":[
		{
			"magFilter":9729,
			"minFilter":9987
		}
	],
	"buffers":[
		{
			"byteLength":187696,
			"uri":"nexo_gradient.bin"
		}
	]
}
